<?xml version="1.0" standalone="no"?><!DOCTYPE svg PUBLIC "-//W3C//DTD SVG 1.1//EN" "http://www.w3.org/Graphics/SVG/1.1/DTD/svg11.dtd"><svg t="1655713406216" class="icon" viewBox="0 0 1024 1024" version="1.1" xmlns="http://www.w3.org/2000/svg" p-id="9858" data-spm-anchor-id="a313x.7781069.0.i7" xmlns:xlink="http://www.w3.org/1999/xlink" width="200" height="200"><defs><style type="text/css">@font-face { font-family: feedback-iconfont; src: url("//at.alicdn.com/t/font_1031158_u69w8yhxdu.woff2?t=1630033759944") format("woff2"), url("//at.alicdn.com/t/font_1031158_u69w8yhxdu.woff?t=1630033759944") format("woff"), url("//at.alicdn.com/t/font_1031158_u69w8yhxdu.ttf?t=1630033759944") format("truetype"); }
</style></defs><path d="M279.648 318.56c14.336 4.064 99.744 0.512 99.744 0.512S308.256 270.912 293.952 266.816c-14.336-4.064-29.12 4.192-33.088 18.496C256.928 299.584 265.344 314.464 279.648 318.56z" p-id="9859" data-spm-anchor-id="a313x.7781069.0.i10" class="selected" fill="#d81e06"></path><path d="M366.976 266.144c3.808 23.072 15.744 43.168 33.632 56.608 15.392 11.584 34.944 17.952 55.072 17.952 12.96 0 26.08-2.656 37.92-7.68 13.056-5.536 24.64-13.984 33.504-24.416 16.448-19.392 23.136-44.48 18.816-70.72-2.752-16.768-5.536-33.504-8.288-50.272l-2.72-16.512c-3.808-23.072-15.744-43.168-33.632-56.608-15.392-11.584-34.944-17.952-55.072-17.952-12.96 0-26.08 2.656-37.92 7.68-13.056 5.536-24.64 13.984-33.504 24.416-16.448 19.392-23.136 44.48-18.816 70.72C359.648 221.632 363.328 243.872 366.976 266.144zM446.208 146.24c18.08 0 35.968 10.304 39.68 32.96 3.68 22.272 7.328 44.512 11.008 66.784 0.864 5.312 0.8 10.24-0.064 14.688-9.792-5.408-24.512-7.68-40.32-5.312-15.36 2.304-28.32 8.48-36 16.192C418.4 267.648 416.832 263.168 416 258.048c-3.68-22.24-7.328-44.512-11.008-66.784C400.256 162.656 423.392 146.24 446.208 146.24z" p-id="9860" data-spm-anchor-id="a313x.7781069.0.i9" class="" fill="#35495e"></path><path d="M860.064 481.248c-7.936-15.2-20.064-28.16-35.04-37.504-2.56-1.6-5.184-3.072-7.84-4.384 17.344-27.36 18.976-60.16 4.16-88.544-7.936-15.2-20.064-28.16-35.04-37.504-14.688-9.12-31.168-14.144-47.808-14.592-1.536-4.64-3.456-9.216-5.76-13.664-7.936-15.232-20.096-28.192-35.104-37.536-15.424-9.568-32.768-14.624-50.208-14.624-29.024 0-55.52 14.144-72.672 38.784-22.432 32.16-46.176 66.88-69.152 100.416-3.328 4.864-6.688 9.76-10.048 14.688-5.088-4.896-10.72-9.344-16.8-13.248-16.448-10.528-34.656-16.064-52.704-16.064 0 0 0 0 0 0-26.752 0-50.976 12.512-66.4 34.336-4.512 6.368-8.544 12.064-12.128 17.152-6.432-20.256-19.904-37.824-38.016-49.6-16.064-10.432-35.648-16.192-55.136-16.192-12.48 0-24.576 2.272-35.872 6.72-12.704 4.992-23.808 12.48-32.96 22.272-9.12 9.728-15.872 21.248-20.064 34.272-3.936 12.192-5.536 25.408-4.736 39.36 0.064 6.912-0.48 44.416-0.768 64.832-0.16 12.096-0.32 21.664-0.352 25.856-0.64 65.408 0.096 80.576 1.248 103.52 0.544 10.816 1.12 23.008 1.728 43.712-0.256 20.768 6.176 43.072 19.136 66.336 10.752 19.296 25.696 38.848 44.416 58.144 31.104 32.032 70.88 61.152 112 81.984 22.72 11.52 45.76 20.512 68.448 26.752 25.28 6.944 50.176 10.464 73.984 10.464 31.872 0 61.888-6.272 89.184-18.624 31.52-14.272 61.76-36.352 89.952-65.664 20.288-21.088 39.456-45.856 56.992-73.632l70.176-100.544 66.688-95.552C873.088 545.376 875.52 510.912 860.064 481.248zM812.768 544.992c-45.856 65.696-91.68 131.392-137.536 197.088-26.176 41.632-68.864 95.616-126.016 121.504-21.792 9.856-44.992 14.208-68.704 14.208-128.384 0-270.304-127.488-268.288-194.24-1.856-66.08-3.904-50.816-2.976-146.496 0.128-13.472 1.376-89.184 1.088-93.312-2.304-34.912 20.512-50.848 44-50.816 19.68 0 39.84 11.2 46.016 31.776 14.72 49.056 5.312 76.928 5.696 127.328 62.4-86.08 32.416-44.288 94.112-131.488 0.288-0.416 0.608-0.832 0.928-1.216 3.2 11.328 13.856 23.936 29.216 32.928 15.872 9.312 32.576 12.32 43.84 8.928-0.96 3.2-2.464 6.336-4.64 9.44-10.688 15.296-14.144 20.384-13.984 20.384 0.32 0 15.168-20.512 15.488-20.512 0.16 0-3.232 5.024-13.728 20.032-7.68 10.976-1.856 20.896 6.208 20.896 3.712 0 7.872-2.112 11.424-7.168 45.504-65.216 95.104-138.88 140.576-204.128 8.608-12.384 20.288-17.504 31.936-17.504 30.176 0 60.352 34.336 38.048 66.336-45.376 65.12-94.496 137.76-140.224 203.648-8.48 12.224-2.848 21.76 5.6 21.76 4.384 0 9.536-2.56 13.888-8.608 47.392-65.984 92.992-133.248 139.488-199.872 8.608-12.352 20.256-17.472 31.904-17.472 30.112 0 60.192 34.24 37.888 66.176-46.816 67.072-93.632 134.144-140.448 201.216-8.672 12.416-3.296 19.84 4.352 19.84 4.352 0 9.44-2.4 13.12-7.648 30.624-43.904 61.28-87.808 91.904-131.68 8.608-12.352 20.256-17.472 31.904-17.472C804.96 478.816 835.072 513.056 812.768 544.992z" p-id="9861" data-spm-anchor-id="a313x.7781069.0.i8" class="" fill="#41b883"></path></svg>